<?xml version="1.0" standalone="no"?>
<!DOCTYPE svg PUBLIC "-//W3C//DTD SVG 20010904//EN"
 "http://www.w3.org/TR/2001/REC-SVG-20010904/DTD/svg10.dtd">
<svg version="1.0" xmlns="http://www.w3.org/2000/svg"
 width="250.000000pt" height="250.000000pt" viewBox="0 0 250.000000 250.000000"
 preserveAspectRatio="xMidYMid meet">
<metadata>
Created by potrace 1.11, written by Peter Selinger 2001-2013
</metadata>
<g transform="translate(0.000000,250.000000) scale(0.100000,-0.100000)"
fill="#000000" stroke="none">
<path d="M1260 2360 c-31 -18 -61 -28 -70 -24 -26 11 -90 22 -85 14 3 -4 -18
-10 -45 -12 -83 -8 -299 -137 -319 -191 -5 -12 -23 -46 -40 -75 -34 -57 -37
-67 -20 -56 15 9 4 -27 -28 -90 -13 -26 -19 -45 -12 -41 9 6 10 -4 5 -41 -12
-89 -18 -258 -11 -342 7 -79 8 -82 21 -57 17 33 31 137 15 115 -6 -8 -11 -25
-11 -37 0 -13 -5 -23 -11 -23 -11 0 -7 168 6 270 3 19 8 67 11 105 3 39 12 79
19 90 6 11 15 37 19 58 10 56 72 151 124 192 81 63 197 113 276 118 57 4 71 2
87 -14 14 -14 20 -15 26 -6 19 29 47 40 115 43 49 3 68 1 58 -5 -23 -16 -7
-21 31 -11 43 13 112 13 105 1 -4 -5 12 -12 35 -16 22 -4 43 -13 46 -21 3 -8
11 -14 18 -14 7 0 25 -10 41 -22 22 -17 26 -18 14 -4 -14 18 -13 18 10 12 25
-8 25 -8 4 8 -12 8 -43 24 -70 35 -27 11 -44 20 -39 21 6 0 3 5 -5 10 -8 5
-36 10 -63 10 -26 0 -56 5 -67 12 -14 9 -34 9 -80 2 -49 -8 -60 -8 -56 3 7 17
10 18 -54 -17z"/>
<path d="M1510 2295 c49 -19 71 -19 46 0 -11 8 -34 15 -50 14 l-31 -1 35 -13z"/>
<path d="M1415 2280 c-18 -8 -18 -9 5 -9 14 -1 36 -4 50 -7 17 -5 22 -3 15 4
-16 15 -48 21 -70 12z"/>
<path d="M1249 2261 c-13 -11 -22 -22 -19 -24 3 -3 19 6 35 19 17 13 25 24 19
24 -7 0 -22 -9 -35 -19z"/>
<path d="M1163 2250 c14 -11 29 -20 33 -20 4 0 -1 9 -11 20 -10 11 -25 20 -33
20 -9 0 -6 -7 11 -20z"/>
<path d="M1000 2250 c-13 -9 -13 -10 0 -9 8 1 26 5 40 9 l25 8 -25 1 c-14 0
-32 -4 -40 -9z"/>
<path d="M1149 2210 c55 -25 64 -25 26 0 -16 11 -39 20 -50 20 -12 0 -3 -8 24
-20z"/>
<path d="M1250 2215 c-11 -13 -8 -13 16 -5 16 5 38 11 49 13 11 3 4 5 -16 6
-21 1 -42 -5 -49 -14z"/>
<path d="M1720 2222 c0 -4 6 -14 13 -21 10 -11 8 -12 -10 -6 -23 6 -23 5 -23
-93 0 -83 -4 -109 -22 -149 l-23 -48 -5 85 c-4 72 -7 82 -17 65 -11 -18 -12
-15 -13 22 0 51 -16 65 -24 20 -3 -17 -17 -50 -30 -72 l-25 -40 -7 44 c-8 52
-19 38 -28 -37 -4 -29 -10 -60 -13 -69 -6 -15 -7 -14 -14 3 -4 10 -8 33 -8 51
-1 48 -18 48 -25 0 -10 -64 -23 -78 -33 -37 l-9 34 -23 -47 c-30 -61 -37 -64
-34 -14 3 41 2 41 -8 12 -6 -16 -22 -63 -36 -102 -14 -40 -28 -73 -32 -73 -7
0 -42 72 -55 110 -2 8 -5 3 -5 -12 -1 -16 -5 -28 -9 -28 -10 0 -55 47 -71 75
-10 17 -11 16 -6 -12 9 -45 -9 -42 -41 7 -15 22 -29 38 -32 36 -6 -6 29 -55
62 -85 l26 -24 0 23 c0 23 2 22 39 -14 23 -23 40 -33 43 -26 2 7 12 -6 22 -29
11 -22 22 -41 27 -41 4 0 18 27 31 60 12 33 28 58 34 56 6 -2 21 16 35 40 27
51 36 55 41 17 l4 -28 19 38 c20 39 35 34 35 -12 0 -40 27 -7 41 52 12 49 13
50 19 22 5 -29 6 -29 42 35 l37 65 1 -39 c0 -34 2 -37 16 -25 15 12 16 7 13
-63 -4 -70 -3 -76 12 -62 31 28 34 10 12 -71 -4 -17 0 -15 26 9 l31 30 0 -46
c0 -25 14 -90 31 -144 27 -90 49 -214 49 -286 0 -26 -3 -28 -39 -28 -36 0 -41
3 -61 44 -30 62 -77 88 -160 89 -52 1 -75 -4 -116 -25 -56 -30 -69 -42 -77
-78 -6 -24 -8 -25 -91 -23 -86 2 -111 7 -101 23 12 19 -11 43 -69 73 -125 64
-266 26 -292 -80 -5 -19 -13 -23 -42 -23 l-35 0 6 73 c4 39 20 147 37 239 16
92 30 181 30 198 0 20 4 29 11 24 12 -7 5 40 -12 81 -10 25 -10 21 -14 -90 -2
-49 -11 -124 -20 -165 -27 -126 -55 -321 -56 -400 -1 -41 -4 -65 -6 -52 -2 12
-8 20 -13 17 -9 -5 14 -96 31 -125 5 -9 6 23 2 78 l-6 92 29 0 c36 0 49 -9 58
-38 11 -35 55 -81 97 -103 121 -61 265 -11 284 98 6 36 11 43 41 53 49 16 102
-2 110 -38 12 -58 29 -85 67 -110 101 -67 286 -5 313 104 4 17 17 27 43 34 51
14 49 15 54 -32 3 -24 3 29 1 117 -2 104 0 150 6 131 27 -88 23 -316 -6 -316
-9 0 -14 -11 -14 -32 0 -18 -3 -44 -6 -58 -8 -39 24 35 49 110 22 68 29 202
15 290 -7 47 3 33 19 -25 6 -23 9 -8 11 60 2 65 6 86 13 75 10 -15 5 101 -7
160 -5 20 -3 22 5 10 21 -30 11 54 -14 115 -29 71 -29 71 -10 55 40 -33 -6 60
-57 116 -24 26 -35 45 -25 41 16 -6 25 8 10 15 -5 2 -23 20 -40 41 -18 21 -33
34 -33 29z m75 -123 c66 -70 47 -76 -23 -6 -35 35 -51 57 -41 57 9 0 38 -23
64 -51z m44 -117 c10 -20 21 -48 25 -62 7 -24 7 -25 -9 -5 -15 18 -55 99 -55
111 0 14 23 -12 39 -44z m-119 -42 c0 -37 -23 -100 -36 -100 -3 0 -3 12 0 28
3 15 8 46 11 70 8 53 25 55 25 2z m30 -145 c0 -11 11 -56 25 -100 40 -130 32
-159 -11 -38 -26 73 -44 200 -25 173 6 -8 11 -24 11 -35z"/>
<path d="M929 2115 c0 -11 0 -36 1 -55 2 -30 0 -32 -14 -21 -20 17 -20 3 -1
-23 14 -19 15 -18 21 13 l7 33 14 -23 c13 -23 13 -23 7 11 -3 19 -12 46 -20
60 -12 22 -13 23 -15 5z"/>
<path d="M880 2070 c-1 -41 -12 -73 -20 -59 -8 12 -11 3 -40 -110 -5 -19 -5
-41 -1 -49 6 -10 10 1 15 34 14 100 17 110 31 91 11 -15 14 -10 23 35 6 31 7
59 1 68 -6 11 -8 9 -9 -10z"/>
<path d="M970 2007 c0 -14 38 -83 53 -95 12 -10 16 -8 21 11 3 12 1 36 -3 52
-9 30 -9 30 -10 -8 -1 -45 -13 -41 -41 11 -10 20 -19 33 -20 29z"/>
<path d="M670 1376 c0 -13 -4 -26 -8 -28 -5 -1 -3 -16 4 -33 13 -29 13 -29 14
28 0 31 -2 57 -5 57 -3 0 -5 -11 -5 -24z"/>
<path d="M1232 1185 c-19 -128 -19 -147 -2 -153 12 -4 13 -2 3 9 -9 12 -9 26
3 66 8 28 14 78 12 110 l-3 58 -13 -90z"/>
<path d="M1276 1042 c-2 -4 4 -8 15 -8 10 0 19 4 19 8 0 4 -6 8 -14 8 -8 0
-17 -4 -20 -8z"/>
<path d="M1404 920 c-5 -5 -81 -11 -169 -13 l-160 -3 167 -2 c110 -1 169 2
173 9 9 14 1 21 -11 9z"/>
<path d="M1207 828 c6 -10 80 -10 86 0 3 4 -16 7 -43 7 -26 0 -46 -3 -43 -7z"/>
<path d="M1424 598 c8 -39 47 -92 86 -115 17 -9 30 -20 30 -24 0 -22 -103 -91
-178 -119 -61 -24 -86 -38 -94 -56 -14 -29 -20 -30 -36 -4 -7 12 -54 41 -106
65 -51 24 -109 57 -129 73 l-36 29 37 24 c36 24 82 90 82 119 0 12 -19 15
-108 17 -59 1 -115 0 -124 -3 -26 -8 -32 -58 -12 -94 12 -19 15 -33 9 -39 -6
-5 -56 -23 -112 -40 -109 -33 -174 -74 -204 -126 -9 -17 -28 -91 -41 -165
l-25 -135 331 -3 c182 -1 337 0 343 3 18 6 17 139 -2 201 -18 61 -18 64 -1 64
18 0 25 -33 32 -163 l7 -107 87 0 87 0 6 118 c5 125 11 152 33 152 8 0 14 -1
14 -2 0 -2 -7 -25 -15 -52 -8 -27 -15 -87 -15 -133 l0 -83 335 0 335 0 -4 23
c-3 12 -15 73 -26 136 -24 129 -36 157 -81 195 -48 40 -97 63 -190 86 -119 30
-113 26 -95 52 34 48 9 102 -57 127 -16 6 -60 11 -99 11 l-70 0 6 -32z"/>
</g>
</svg>
